<svg width="485" height="450" viewBox="0 0 485 450" fill="none" xmlns="http://www.w3.org/2000/svg">
<path d="M225 0C242.185 0 258.919 1.92727 275 5.57617V83.5361C259.361 78.0085 242.532 75 225 75C142.157 75 75 142.157 75 225C75 307.843 142.157 375 225 375C242.532 375 259.361 371.991 275 366.463V444.423C258.919 448.072 242.185 450 225 450C100.736 450 0 349.264 0 225C0 100.736 100.736 0 225 0Z" fill="#14b8a6"/>
<path d="M253 100C238.265 100 224.127 102.551 211 107.232V162.854C222.983 154.739 237.438 150 253 150C294.421 150 328 183.579 328 225C328 266.421 294.421 300 253 300C237.438 300 222.983 295.26 211 287.146V342.767C224.127 347.448 238.265 350 253 350C322.036 350 378 294.036 378 225C378 155.964 322.036 100 253 100Z" fill="#14b8a6"/>
<path d="M485 249.225H375.542V449H324.458V249.225H211V199H485V249.225Z" fill="#14b8a6"/>
</svg>
